<?xml version="1.0" encoding="utf-8"?>
<svg viewBox="0 0 500 500" xmlns="http://www.w3.org/2000/svg">
  <path class="st0" d="M 65.876 123.873 L 65.876 207.373 L 109.576 207.373 L 109.576 157.473 L 166.476 157.473 L 166.476 123.873 L 65.876 123.873 Z M 65.876 108.773 L 166.576 108.773 L 166.576 74.873 L 65.876 74.873 L 65.876 108.773 Z M 365.276 123.773 C 371.676 123.773 372.576 117.873 372.576 115.673 C 372.576 113.373 370.876 108.773 365.576 108.773 L 297.776 108.773 L 297.776 74.873 L 357.376 74.873 C 382.176 74.873 408.976 83.373 408.976 116.073 C 408.976 148.773 379.976 157.473 361.376 157.473 L 338.376 157.473 L 338.376 207.473 L 297.776 207.473 L 297.776 123.873 L 365.276 123.873 L 365.276 123.773 Z M 282.476 170.973 L 183.576 170.973 L 183.576 207.373 L 282.476 207.373 L 282.476 170.973 Z M 227.176 74.773 L 183.576 74.773 L 183.576 157.473 L 227.176 157.473 L 227.176 74.773 Z" style="fill: rgb(255, 102, 0);"/>
</svg>